<svg version="1.1" id="Layer_2" xmlns="http://www.w3.org/2000/svg" x="0" y="0" viewBox="0 0 146.3 40.4" xml:space="preserve"><style>.st0{fill:#283645}.st1{fill:#d22856}</style><path class="st0" d="M71.9 18.7c0-.7.6-1.3 1.3-1.3h7.2c5.1 0 8.4 2.7 8.4 7.1v.1c0 4.9-4.1 7.4-8.9 7.4h-5.5v6.8c.1.7-.5 1.3-1.2 1.4-.7.1-1.3-.5-1.4-1.2v-.2c.1 0 .1-20.1.1-20.1zm8.1 11c3.7 0 6.2-2 6.2-5v-.1c0-3.2-2.4-4.9-6-4.9h-5.7v9.9l5.5.1zm13.6-11.2c-.1-.7.5-1.3 1.2-1.4.7-.1 1.3.5 1.4 1.2v20.5c.1.7-.5 1.3-1.2 1.4-.7.1-1.3-.5-1.4-1.2V18.5zm9.1 0c0-.7.6-1.2 1.3-1.3h.3c.5 0 1 .3 1.3.7l13.7 17.5v-17c0-.7.6-1.2 1.2-1.2.7 0 1.2.6 1.2 1.2v20.3c0 .6-.5 1.2-1.1 1.2h-.2c-.5 0-1-.3-1.3-.8l-14-17.9v17.5c0 .7-.5 1.2-1.2 1.3-.7 0-1.2-.6-1.2-1.3V18.5zm25.5 0c-.1-.7.5-1.3 1.2-1.4.7-.1 1.3.5 1.4 1.2v12.5l12.8-13.2c.3-.3.6-.4 1-.5.7 0 1.2.6 1.2 1.3 0 .3-.2.7-.4.9l-8 7.9 8.6 10.6c.2.3.3.6.4.9 0 .7-.6 1.3-1.3 1.3-.4 0-.8-.2-1-.6L135.6 29l-4.9 4.9v4.9c0 .7-.6 1.3-1.3 1.3s-1.3-.6-1.3-1.3l.1-20.3z"/><path class="st1" d="M98.5 9.9c-2 0-3.6-1.6-3.6-3.6 0 2-1.6 3.6-3.6 3.6 2 0 3.6 1.6 3.6 3.6 0-2 1.6-3.6 3.6-3.6z"/><path d="M43.1 19.3h.7c-.4-.8-1.3-1.2-2.1-1.2-.9 0-1.6-.5-1.9-1.4-.7.2-1.4.5-2.1.8h.2c1.1 0 2 .9 2 2v.3c1-.3 2.1-.5 3.2-.5z" fill="#fff"/><path class="st0" d="M60.5 28L55.3 6.7C54.9 4.3 52.7 0 46.7 0c-.8 0-1.5.7-1.5 1.5S45.9 3 46.7 3c4.8 0 5.6 3.7 5.6 4.1l4.8 19.7H55c-.4-3.5-2.4-6.6-5.3-8.5-.9.4-1.5 1.3-1.5 2.3v.3c2.5 1.7 4 4.5 4 7.5 0 .5-.1 1-.1 1.5-.8 4.9-5.4 8.3-10.3 7.5-3.9-.6-6.9-3.6-7.5-7.5-.1-.5-.1-1-.1-1.5 0-1.4.3-2.8 1-4-1-.1-1.9-.9-1.9-2 0-.2-.1-.4-.2-.5-1 1.5-1.6 3.2-1.8 5h-1.9c-.7-6.6-6.6-11.4-13.2-10.6-5.6.6-10 5-10.6 10.6H3.4L8.2 7.1C8.3 6.7 9 3 13.8 3c.8 0 1.5-.7 1.5-1.5S14.7 0 13.8 0c-6 0-8.2 4.3-8.6 6.7L.1 28c-.2.8.2 1.5 1 1.8.2 0 .3.1.5.1h4c.1.6.2 1.2.4 1.8-.1-.2 0-.3 0-.4 0-1.1.9-2 2-2 .2 0 .3 0 .5.1 0-.3-.1-.7-.1-1 0-.5 0-1 .1-1.5.7-4.9 5.3-8.3 10.2-7.6 3.9.6 7 3.7 7.6 7.6.1.5.1 1 .1 1.5 0 5-4 9-9 9-1.9 0-3.9-.6-5.4-1.7-.4.3-.8.5-1.3.5-.4 0-.7.3-.7.8 0 .3-.1.6-.2.8 2.1 1.8 4.8 2.7 7.6 2.7 6.1 0 11.2-4.5 12-10.5h1.8c.7 6.6 6.6 11.4 13.2 10.6 5.6-.6 10-5 10.6-10.6h4c.8.1 1.5-.5 1.5-1.3V28z"/><path class="st1" d="M50.7 16.1c-2.5 0-4.5-2-4.5-4.5 0 2.5-2 4.5-4.5 4.5 2.5 0 4.5 2 4.5 4.5 0-2.5 2-4.5 4.5-4.5zm-12.8 3.5c-1.5 0-2.8-1.2-2.8-2.8 0 1.5-1.2 2.7-2.7 2.8 1.5 0 2.7 1.2 2.7 2.7.1-1.4 1.3-2.7 2.8-2.7zM10.7 34.1c-1.5 0-2.7-1.2-2.7-2.8 0 1.5-1.2 2.7-2.7 2.8 1.5 0 2.7 1.2 2.7 2.8 0-1.6 1.2-2.8 2.7-2.8z"/></svg>