<?xml version="1.0" encoding="utf-8"?>
<!-- Generator: Adobe Illustrator 22.0.0, SVG Export Plug-In . SVG Version: 6.00 Build 0)  -->
<svg version="1.1" id="Слой_1" xmlns="http://www.w3.org/2000/svg" xmlns:xlink="http://www.w3.org/1999/xlink" x="0px" y="0px"
	 viewBox="0 0 27 34" style="enable-background:new 0 0 27 34;" xml:space="preserve">
<style type="text/css">
	.st0{stroke:#231F20;stroke-miterlimit:10;}
</style>
<path class="st0" d="M13.5,0.7l-0.1,0L0.8,2v23.1l12.6,7.5L26,25.1V2L13.5,0.7z M24.4,24.2l-11,6.5l-11-6.5v-9.5l10.9,6.5l0,1.2
	l-7.5-4.5l0,1.1l7.5,4.5l0,1.2l-7.5-4.5l0,1.1l7.5,4.5l7.6-4.5v-1.1l0,0v-0.4v-0.5v-2.9l3.4-2V24.2z M24.3,13.3l-3,1.8L20,15.9
	l-6.6-3.9l0,1.1l5.6,3.4l0,0l-0.1,0.1L18,17l-4.7-2.8l0,1.1l3.7,2.2l-0.9,0.6l0,0l-2.8-1.6l0,1.1l1.8,1.1l-1.9,1.1L2.5,13.4
	l10.9-6.5v0L24.3,13.3z M24.4,12.1l-11-6.5v0l0,0l0,0v0L2.4,12.1V3.5l11-1.1l11,1.1V12.1z"/>
</svg>
