<?xml version="1.0" encoding="utf-8"?>
<!-- Generator: Adobe Illustrator 22.0.0, SVG Export Plug-In . SVG Version: 6.00 Build 0)  -->
<svg version="1.1" id="Layer_2" xmlns="http://www.w3.org/2000/svg" xmlns:xlink="http://www.w3.org/1999/xlink" x="0px" y="0px"
	 viewBox="0 0 146.3 40.4" style="enable-background:new 0 0 146.3 40.4;" xml:space="preserve">
<style type="text/css">
	.st0{fill:#283645;}
	.st1{fill:#D22856;}
	.st2{fill:#FFFFFF;}
</style>
<title>Vector Smart Object</title>
<path class="st0" d="M71.9,18.7c0-0.7,0.6-1.3,1.3-1.3h7.2c5.1,0,8.4,2.7,8.4,7.1v0.1c0,4.9-4.1,7.4-8.9,7.4h-5.5v6.8
	c0.1,0.7-0.5,1.3-1.2,1.4c-0.7,0.1-1.3-0.5-1.4-1.2c0-0.1,0-0.2,0-0.2C71.9,38.8,71.9,18.7,71.9,18.7z M80,29.7c3.7,0,6.2-2,6.2-5
	v-0.1c0-3.2-2.4-4.9-6-4.9h-5.7v9.9L80,29.7z"/>
<path class="st0" d="M93.6,18.5c-0.1-0.7,0.5-1.3,1.2-1.4c0.7-0.1,1.3,0.5,1.4,1.2c0,0.1,0,0.2,0,0.2v20.3c0.1,0.7-0.5,1.3-1.2,1.4
	c-0.7,0.1-1.3-0.5-1.4-1.2c0-0.1,0-0.2,0-0.2V18.5z"/>
<path class="st0" d="M102.7,18.5c0-0.7,0.6-1.2,1.3-1.3h0.3c0.5,0,1,0.3,1.3,0.7l13.7,17.5v-17c0-0.7,0.6-1.2,1.2-1.2
	c0.7,0,1.2,0.6,1.2,1.2v20.3c0,0.6-0.5,1.2-1.1,1.2c0,0,0,0-0.1,0h-0.1c-0.5,0-1-0.3-1.3-0.8l-14-17.9v17.5c0,0.7-0.5,1.2-1.2,1.3
	c-0.7,0-1.2-0.6-1.2-1.3L102.7,18.5L102.7,18.5z"/>
<path class="st0" d="M128.2,18.5c-0.1-0.7,0.5-1.3,1.2-1.4c0.7-0.1,1.3,0.5,1.4,1.2c0,0.1,0,0.2,0,0.2v12.3l12.8-13.2
	c0.3-0.3,0.6-0.4,1-0.5c0.7,0,1.2,0.6,1.2,1.3c0,0.3-0.2,0.7-0.4,0.9l-8,7.9l8.6,10.6c0.2,0.3,0.3,0.6,0.4,0.9
	c0,0.7-0.6,1.3-1.3,1.3c0,0,0,0,0,0c-0.4,0-0.8-0.2-1-0.6L135.6,29l-4.9,4.9v4.9c0,0.7-0.6,1.3-1.3,1.3s-1.3-0.6-1.3-1.3
	c0,0,0,0,0,0L128.2,18.5L128.2,18.5z"/>
<path class="st1" d="M98.5,9.9c-2,0-3.6-1.6-3.6-3.6c0,2-1.6,3.6-3.6,3.6l0,0c2,0,3.6,1.6,3.6,3.6C94.9,11.5,96.5,9.9,98.5,9.9z"/>
<path class="st2" d="M43.1,19.3c0.3,0,0.5,0,0.7,0c-0.4-0.8-1.3-1.2-2.1-1.2c-0.9,0-1.6-0.5-1.9-1.4c-0.7,0.2-1.4,0.5-2.1,0.8h0.2
	c1.1,0,2,0.9,2,2c0,0.1,0,0.2,0,0.3C40.9,19.5,42,19.3,43.1,19.3z"/>
<path class="st0" d="M60.5,28L55.3,6.7C54.9,4.3,52.7,0,46.7,0c-0.8,0-1.5,0.7-1.5,1.5S45.9,3,46.7,3c4.8,0,5.6,3.7,5.6,4.1
	l4.8,19.7H55c-0.4-3.5-2.4-6.6-5.3-8.5c-0.9,0.4-1.5,1.3-1.5,2.3c0,0.1,0,0.2,0,0.3c2.5,1.7,4,4.5,4,7.5c0,0.5-0.1,1-0.1,1.5
	c-0.8,4.9-5.4,8.3-10.3,7.5c-3.9-0.6-6.9-3.6-7.5-7.5c-0.1-0.5-0.1-1-0.1-1.5c0-1.4,0.3-2.8,1-4c-1-0.1-1.9-0.9-1.9-2
	c0-0.2-0.1-0.4-0.2-0.5c-1,1.5-1.6,3.2-1.8,5h-1.9c-0.7-6.6-6.6-11.4-13.2-10.6c-5.6,0.6-10,5-10.6,10.6H3.4L8.2,7.1
	C8.3,6.7,9,3,13.8,3c0.8,0,1.5-0.7,1.5-1.5S14.7,0,13.8,0c-6,0-8.2,4.3-8.6,6.7L0.1,28c-0.2,0.8,0.2,1.5,1,1.8
	c0.2,0,0.3,0.1,0.5,0.1h4c0.1,0.6,0.2,1.2,0.4,1.8C5.9,31.5,6,31.4,6,31.3c0-1.1,0.9-2,2-2c0.2,0,0.3,0,0.5,0.1c0-0.3-0.1-0.7-0.1-1
	c0-0.5,0-1,0.1-1.5c0.7-4.9,5.3-8.3,10.2-7.6c3.9,0.6,7,3.7,7.6,7.6c0.1,0.5,0.1,1,0.1,1.5c0,5-4,9-9,9c-1.9,0-3.9-0.6-5.4-1.7
	c-0.4,0.3-0.8,0.5-1.3,0.5c-0.4,0-0.7,0.3-0.7,0.8c0,0.3-0.1,0.6-0.2,0.8c2.1,1.8,4.8,2.7,7.6,2.7c6.1,0,11.2-4.5,12-10.5h1.8
	c0.7,6.6,6.6,11.4,13.2,10.6c5.6-0.6,10-5,10.6-10.6h4c0.8,0.1,1.5-0.5,1.5-1.3C60.5,28.4,60.5,28.2,60.5,28z"/>
<path class="st1" d="M50.7,16.1c-2.5,0-4.5-2-4.5-4.5c0,0,0,0,0,0c0,2.5-2,4.5-4.5,4.5c2.5,0,4.5,2,4.5,4.5
	C46.2,18.1,48.2,16.1,50.7,16.1z"/>
<path class="st1" d="M37.9,19.6c-1.5,0-2.8-1.2-2.8-2.8c0,1.5-1.2,2.7-2.7,2.8c1.5,0,2.7,1.2,2.7,2.7v0
	C35.2,20.9,36.4,19.6,37.9,19.6z"/>
<path class="st1" d="M10.7,34.1c-1.5,0-2.7-1.2-2.7-2.8c0,1.5-1.2,2.7-2.7,2.8c1.5,0,2.7,1.2,2.7,2.8C8,35.3,9.2,34.1,10.7,34.1z"/>
</svg>
